<svg id="splitsvg" version="1.1" width="1380" height="448">
    <g id="svgg">
        <path id="path1"
            d="M146.176 32.984 C 146.100 33.060,146.038 62.423,146.038 98.234 L 146.038 163.345 147.205 163.345 L 148.372 163.345 148.323 98.153 L 148.274 32.961 147.294 32.903 C 146.756 32.872,146.252 32.908,146.176 32.984 M85.950 46.741 C 85.349 47.016,69.421 62.933,69.424 63.257 C 69.425 63.385,73.234 67.294,77.888 71.942 L 86.350 80.393 89.367 77.387 C 98.475 68.312,102.599 64.107,102.837 63.652 C 103.238 62.888,86.750 46.376,85.950 46.741 M91.991 57.073 C 98.082 63.139,97.941 62.969,97.538 63.748 C 96.949 64.887,86.554 75.028,86.087 74.919 C 85.326 74.741,74.672 63.965,74.672 63.373 C 74.672 62.859,75.803 61.449,76.214 61.449 C 76.329 61.449,76.422 61.354,76.422 61.239 C 76.422 60.988,77.933 59.504,78.188 59.504 C 78.286 59.504,78.367 59.414,78.367 59.303 C 78.367 59.193,78.670 58.799,79.041 58.428 C 79.411 58.057,79.805 57.754,79.916 57.754 C 80.026 57.754,80.117 57.669,80.117 57.564 C 80.117 57.325,82.616 54.837,82.856 54.837 C 82.954 54.837,83.034 54.747,83.034 54.636 C 83.034 54.526,83.337 54.132,83.708 53.761 C 84.078 53.390,84.472 53.087,84.583 53.087 C 84.693 53.087,84.784 52.965,84.784 52.815 C 84.784 52.595,86.327 51.486,86.480 51.597 C 86.504 51.614,88.984 54.079,91.991 57.073 M86.012 58.267 C 85.645 58.417,81.184 63.001,81.206 63.207 C 81.216 63.309,81.238 63.512,81.254 63.657 C 81.295 64.022,85.391 68.115,85.989 68.387 C 86.469 68.606,90.694 64.759,91.348 63.508 C 91.533 63.155,86.854 58.109,86.388 58.158 C 86.308 58.167,86.139 58.216,86.012 58.267 M163.906 65.869 C 163.848 66.256,163.992 66.822,164.239 67.175 C 164.470 67.504,164.511 72.312,164.511 98.524 C 164.511 118.169,164.581 129.666,164.701 129.982 L 164.891 130.481 168.396 130.481 C 171.643 130.481,171.929 130.453,172.290 130.092 C 172.677 129.705,172.679 129.492,172.631 97.763 L 172.581 65.824 168.255 65.772 C 165.875 65.743,163.918 65.787,163.906 65.869 M237.239 66.116 C 236.875 66.479,236.850 66.764,236.850 70.480 C 236.850 75.501,236.400 75.061,241.530 75.061 C 244.965 75.061,245.377 75.096,245.664 75.413 C 245.955 75.735,245.987 78.090,246.035 103.010 C 246.063 117.994,246.159 130.327,246.248 130.416 C 246.612 130.781,253.637 130.729,253.907 130.359 C 254.164 130.008,254.295 78.389,254.041 77.491 C 253.981 77.278,253.654 76.926,253.315 76.710 C 252.848 76.412,252.698 76.176,252.698 75.737 L 252.698 75.158 257.975 75.106 C 263.252 75.055,263.252 75.055,263.369 74.620 C 263.521 74.053,263.520 66.732,263.368 66.164 L 263.251 65.727 250.439 65.727 C 237.887 65.727,237.620 65.735,237.239 66.116 M308.216 65.921 C 308.047 66.030,308.020 66.111,308.152 66.113 C 308.278 66.114,308.485 66.444,308.613 66.845 C 308.741 67.246,308.923 67.657,309.017 67.759 C 309.114 67.863,309.191 81.366,309.194 98.872 C 309.199 124.281,309.247 129.861,309.459 130.141 C 309.688 130.442,310.107 130.481,313.116 130.481 L 316.515 130.481 316.741 129.986 C 317.044 129.321,317.068 66.668,316.765 66.103 C 316.540 65.681,308.840 65.518,308.216 65.921 M321.633 65.901 C 321.633 66.004,321.751 66.205,321.894 66.349 C 322.613 67.067,322.606 66.743,322.606 98.359 C 322.606 115.358,322.660 129.539,322.727 129.874 L 322.849 130.481 326.688 130.481 L 330.528 130.481 330.648 129.752 C 330.796 128.857,330.809 105.648,330.662 105.101 C 330.604 104.885,330.233 104.492,329.838 104.227 C 328.264 103.174,328.683 102.771,331.354 102.771 C 333.579 102.771,333.680 102.829,333.904 104.242 C 333.991 104.797,334.186 105.393,334.337 105.567 C 334.587 105.854,334.678 106.238,334.993 108.313 C 335.049 108.687,335.205 109.125,335.340 109.285 C 335.474 109.446,335.643 110.046,335.716 110.619 C 335.789 111.193,335.969 111.849,336.116 112.078 C 336.264 112.307,336.469 113.115,336.573 113.875 C 336.677 114.634,336.904 115.532,337.078 115.869 C 337.253 116.206,337.472 117.072,337.565 117.794 C 337.658 118.515,337.869 119.359,338.033 119.670 C 338.197 119.980,338.435 120.855,338.560 121.614 C 338.686 122.374,338.910 123.132,339.058 123.301 C 339.206 123.469,339.382 124.038,339.449 124.565 C 339.515 125.091,339.689 125.713,339.834 125.946 C 339.979 126.180,340.148 126.748,340.210 127.210 C 340.460 129.086,340.531 129.327,341.007 129.892 L 341.503 130.481 344.949 130.481 C 348.731 130.481,349.212 130.363,348.990 129.491 C 348.925 129.233,348.715 128.358,348.524 127.544 C 348.333 126.731,348.068 125.935,347.934 125.774 C 347.800 125.614,347.636 124.923,347.569 124.239 C 347.501 123.554,347.291 122.732,347.102 122.411 C 346.912 122.090,346.665 121.230,346.554 120.499 C 346.442 119.768,346.265 119.067,346.161 118.942 C 346.056 118.816,345.827 117.945,345.651 117.005 C 345.475 116.066,345.215 115.017,345.074 114.674 C 344.933 114.330,344.754 113.568,344.677 112.980 C 344.600 112.392,344.400 111.755,344.231 111.564 C 344.063 111.374,343.855 110.639,343.770 109.931 C 343.685 109.223,343.497 108.504,343.353 108.333 C 343.209 108.162,342.980 107.409,342.843 106.660 C 342.706 105.912,342.452 104.885,342.278 104.378 C 341.869 103.186,342.098 102.930,343.813 102.664 C 346.506 102.246,348.019 100.991,348.879 98.461 L 349.459 96.757 349.393 83.819 L 349.328 70.880 348.781 69.616 C 348.086 68.012,347.370 67.264,345.763 66.463 L 344.482 65.824 333.058 65.769 C 325.858 65.735,321.633 65.784,321.633 65.901 M177.248 66.070 C 178.037 66.649,178.022 66.073,178.123 99.076 L 178.221 130.579 182.055 130.631 L 185.889 130.684 185.952 114.102 C 185.986 104.982,186.087 97.324,186.175 97.083 C 186.402 96.467,186.627 96.539,186.780 97.278 C 186.853 97.625,187.120 98.272,187.375 98.715 C 187.702 99.283,187.904 100.083,188.064 101.437 C 188.188 102.491,188.401 103.529,188.536 103.743 C 188.671 103.957,188.844 104.690,188.919 105.373 C 188.995 106.055,189.216 106.974,189.410 107.414 C 189.603 107.855,189.853 109.034,189.963 110.034 C 190.074 111.034,190.256 111.963,190.369 112.098 C 190.481 112.234,190.649 112.950,190.742 113.691 C 190.835 114.432,191.085 115.428,191.298 115.905 C 191.522 116.407,191.739 117.456,191.814 118.398 C 191.885 119.293,192.071 120.272,192.227 120.574 C 192.384 120.877,192.600 121.745,192.707 122.504 C 192.815 123.263,193.024 124.078,193.172 124.315 C 193.320 124.551,193.555 125.620,193.695 126.689 C 193.836 127.769,194.148 129.090,194.397 129.658 L 194.845 130.683 199.659 130.631 L 204.473 130.579 204.526 98.687 C 204.555 81.147,204.531 66.599,204.473 66.359 C 204.359 65.885,197.694 65.664,196.986 66.111 C 196.732 66.272,196.682 68.368,196.597 82.394 C 196.499 98.624,196.465 99.368,195.827 99.368 C 195.556 99.368,195.280 98.239,195.144 96.566 C 195.076 95.720,194.898 94.793,194.749 94.505 C 194.600 94.218,194.378 93.378,194.255 92.640 C 194.133 91.902,193.918 91.079,193.777 90.812 C 193.637 90.544,193.418 89.452,193.291 88.384 C 193.164 87.317,192.942 86.215,192.797 85.935 C 192.653 85.656,192.475 84.955,192.402 84.377 C 192.329 83.798,192.146 83.025,191.997 82.657 C 191.847 82.289,191.604 81.183,191.456 80.197 C 191.308 79.212,191.058 78.200,190.901 77.949 C 190.744 77.697,190.565 76.911,190.504 76.200 C 190.443 75.490,190.204 74.353,189.974 73.673 C 189.744 72.992,189.508 71.933,189.452 71.319 C 189.395 70.705,189.229 70.103,189.083 69.983 C 188.930 69.855,188.818 69.384,188.818 68.863 C 188.814 65.918,188.819 65.921,182.413 65.924 C 179.466 65.926,177.141 65.991,177.248 66.070 M214.098 66.116 C 213.938 66.219,213.554 66.306,213.246 66.307 C 212.529 66.311,211.181 66.711,211.181 66.920 C 211.181 67.008,210.831 67.259,210.404 67.477 C 209.976 67.695,209.626 67.987,209.626 68.125 C 209.626 68.263,209.440 68.576,209.212 68.820 C 208.496 69.589,208.413 70.493,208.319 78.542 C 208.216 87.388,208.269 88.258,208.955 88.908 C 209.213 89.153,209.426 89.443,209.428 89.553 C 209.430 89.663,209.698 90.057,210.025 90.428 C 210.351 90.800,210.791 91.322,211.002 91.590 C 211.213 91.857,211.738 92.470,212.168 92.951 C 212.598 93.432,213.078 94.063,213.234 94.354 C 213.390 94.644,213.866 95.257,214.292 95.715 C 214.717 96.173,215.067 96.597,215.068 96.656 C 215.069 96.716,215.389 97.109,215.778 97.531 C 216.391 98.196,217.921 100.077,219.394 101.978 C 219.637 102.291,220.272 103.050,220.807 103.666 C 221.342 104.282,221.954 105.019,222.168 105.305 C 222.382 105.591,222.798 106.081,223.092 106.395 C 223.386 106.709,223.629 107.028,223.631 107.104 C 223.633 107.181,224.027 107.673,224.506 108.197 C 224.985 108.721,225.377 109.219,225.377 109.303 C 225.377 109.387,225.639 109.743,225.960 110.095 C 226.281 110.446,226.544 110.884,226.544 111.067 C 226.544 111.251,226.631 111.456,226.738 111.522 C 226.858 111.596,226.932 113.279,226.932 115.923 L 226.932 120.205 226.364 120.773 L 225.796 121.342 221.493 121.342 L 217.191 121.342 216.714 120.827 C 216.238 120.314,216.237 120.303,216.237 116.093 C 216.237 112.252,216.205 111.845,215.882 111.552 C 215.300 111.025,208.751 111.073,208.466 111.606 C 207.857 112.743,208.353 127.108,209.009 127.326 C 209.122 127.364,209.312 127.689,209.430 128.048 C 209.581 128.505,209.822 128.762,210.236 128.906 C 210.560 129.019,211.022 129.300,211.262 129.531 C 212.424 130.649,227.886 131.360,230.086 130.396 C 230.437 130.242,230.950 130.069,231.227 130.011 C 232.170 129.815,233.667 128.367,234.361 126.981 C 234.619 126.465,234.855 109.628,234.621 108.384 C 234.515 107.815,233.861 106.796,233.022 105.891 C 232.828 105.682,232.244 104.982,231.724 104.335 C 231.204 103.689,230.540 102.923,230.249 102.634 C 229.958 102.344,229.464 101.737,229.153 101.285 C 228.841 100.832,228.272 100.150,227.889 99.769 C 227.506 99.388,226.983 98.770,226.727 98.396 C 226.223 97.657,226.186 97.608,225.470 96.743 C 225.205 96.422,224.988 96.101,224.988 96.029 C 224.988 95.957,224.619 95.526,224.168 95.070 C 223.717 94.615,223.136 93.930,222.877 93.548 C 222.618 93.166,222.243 92.739,222.043 92.599 C 221.843 92.459,221.549 92.090,221.388 91.780 C 221.228 91.470,220.900 91.003,220.660 90.741 C 220.420 90.480,220.120 90.136,219.994 89.978 C 219.867 89.819,219.080 88.875,218.244 87.878 C 216.291 85.551,216.245 85.402,216.233 81.381 C 216.223 77.843,216.157 77.551,215.206 76.805 C 213.570 75.522,214.749 75.222,221.130 75.295 C 227.562 75.368,226.932 74.803,226.932 80.506 C 226.932 84.189,226.973 84.757,227.240 84.860 C 227.641 85.014,234.002 85.014,234.403 84.860 C 234.818 84.701,234.852 72.170,234.442 70.297 C 234.140 68.917,233.478 67.832,232.669 67.392 C 232.348 67.218,231.867 66.956,231.599 66.810 C 230.100 65.989,215.207 65.399,214.098 66.116 M268.063 66.381 C 267.712 66.638,267.709 66.677,268.022 67.155 C 268.533 67.934,268.463 69.171,267.749 71.949 C 267.653 72.324,267.492 73.768,267.393 75.158 C 267.294 76.548,267.116 78.123,266.999 78.658 C 266.773 79.691,266.716 80.182,266.382 83.984 C 266.266 85.309,266.060 86.665,265.925 86.998 C 265.790 87.331,265.620 88.860,265.548 90.396 C 265.475 91.932,265.294 93.551,265.145 93.993 C 264.996 94.436,264.775 96.111,264.654 97.715 C 264.532 99.319,264.313 101.113,264.166 101.702 C 264.020 102.290,263.843 103.734,263.774 104.910 C 263.705 106.087,263.489 107.880,263.294 108.896 C 263.100 109.912,262.880 111.695,262.806 112.858 C 262.732 114.021,262.545 115.640,262.390 116.455 C 262.234 117.271,262.020 118.945,261.914 120.175 C 261.807 121.405,261.588 123.111,261.427 123.967 C 261.062 125.899,260.687 129.990,260.838 130.383 C 260.933 130.629,261.536 130.676,264.646 130.676 L 268.342 130.676 268.630 130.119 C 268.789 129.812,268.968 128.748,269.030 127.737 C 269.092 126.733,269.237 125.295,269.351 124.542 L 269.560 123.172 268.859 122.471 C 268.157 121.769,267.961 121.097,268.382 120.837 C 268.505 120.761,271.371 120.715,274.750 120.736 C 281.816 120.779,281.453 120.678,281.670 122.659 C 281.737 123.272,281.884 123.991,281.997 124.259 C 282.109 124.526,282.273 125.954,282.360 127.431 C 282.453 128.991,282.617 130.234,282.752 130.396 C 283.004 130.700,290.406 130.827,290.585 130.530 C 290.762 130.236,290.291 124.924,290.046 124.453 C 289.897 124.168,289.738 122.843,289.660 121.245 C 289.587 119.747,289.358 117.704,289.151 116.703 C 288.944 115.703,288.722 113.909,288.658 112.717 C 288.594 111.525,288.423 110.112,288.279 109.577 C 288.134 109.042,287.880 107.104,287.715 105.270 C 287.550 103.436,287.319 101.686,287.202 101.381 C 287.086 101.076,286.908 99.558,286.807 98.007 C 286.706 96.456,286.538 94.793,286.432 94.312 C 286.040 92.522,285.878 91.235,285.746 88.867 C 285.660 87.318,285.514 86.297,285.343 86.053 C 285.186 85.828,285.071 85.145,285.064 84.400 C 285.058 83.702,284.927 82.168,284.774 80.992 C 284.621 79.815,284.364 77.759,284.202 76.422 C 284.041 75.085,283.817 73.335,283.705 72.533 C 283.593 71.731,283.414 70.331,283.306 69.421 C 283.199 68.512,283.049 67.419,282.974 66.991 L 282.837 66.213 275.635 66.162 C 269.731 66.120,268.366 66.160,268.063 66.381 M45.427 81.067 C 35.444 91.052,34.378 92.178,34.489 92.619 C 34.721 93.543,56.535 115.174,57.094 115.034 C 57.800 114.857,79.533 93.037,79.533 92.505 C 79.533 91.852,57.632 70.005,56.978 70.005 C 56.591 70.005,54.179 72.315,45.427 81.067 M74.388 92.801 C 73.946 93.558,57.686 109.869,57.374 109.869 C 56.872 109.869,55.809 109.281,55.809 109.004 C 55.809 108.838,55.719 108.702,55.608 108.702 C 55.347 108.702,54.059 107.414,54.059 107.153 C 54.059 107.042,53.980 106.952,53.882 106.952 C 53.642 106.952,51.142 104.464,51.142 104.225 C 51.142 104.120,51.052 104.035,50.942 104.035 C 50.680 104.035,49.392 102.747,49.392 102.486 C 49.392 102.375,49.313 102.285,49.215 102.285 C 48.975 102.285,46.475 99.797,46.475 99.558 C 46.475 99.453,46.389 99.368,46.284 99.368 C 46.034 99.368,42.781 96.115,42.781 95.865 C 42.781 95.760,42.695 95.673,42.591 95.673 C 42.088 95.673,39.864 93.101,39.864 92.520 C 39.864 91.885,55.575 75.890,56.879 75.198 L 57.462 74.888 66.111 83.527 L 74.760 92.165 74.388 92.801 M340.968 75.172 C 341.501 75.705,341.423 92.608,340.885 93.145 C 340.518 93.512,340.237 93.534,336.023 93.534 C 330.104 93.534,330.774 94.545,330.771 85.610 C 330.768 77.682,330.728 77.138,330.119 76.855 C 329.495 76.564,328.861 75.282,329.228 75.050 C 329.766 74.709,340.618 74.822,340.968 75.172 M276.712 81.381 C 276.827 82.878,277.012 84.541,277.124 85.075 C 277.235 85.610,277.411 86.835,277.513 87.798 C 277.616 88.760,277.793 90.423,277.906 91.492 C 278.020 92.562,278.199 93.700,278.305 94.020 C 278.411 94.341,278.571 95.829,278.660 97.326 C 278.750 98.824,278.959 100.563,279.126 101.192 C 279.292 101.821,279.521 103.649,279.634 105.255 C 279.748 106.860,279.923 108.327,280.023 108.514 C 280.461 109.332,280.481 110.983,280.057 111.210 C 279.428 111.546,271.835 111.499,271.365 111.156 C 270.976 110.872,271.005 110.402,271.640 106.660 C 271.749 106.018,271.938 104.317,272.059 102.880 C 272.180 101.442,272.363 100.045,272.465 99.776 C 272.568 99.507,272.693 98.408,272.745 97.334 C 272.834 95.472,272.922 94.808,273.399 92.368 C 273.514 91.779,273.692 90.292,273.794 89.062 C 273.896 87.832,274.067 86.388,274.175 85.853 C 274.282 85.318,274.502 83.393,274.664 81.575 C 274.826 79.757,275.015 78.064,275.085 77.814 L 275.213 77.358 275.859 78.008 C 276.502 78.655,276.505 78.670,276.712 81.381 M55.858 82.200 C 55.510 82.569,55.226 82.952,55.226 83.050 C 55.226 83.148,55.160 83.229,55.080 83.229 C 54.920 83.231,55.054 83.100,49.710 88.463 C 46.790 91.393,45.968 92.326,46.046 92.623 C 46.478 94.273,57.754 104.435,57.754 103.173 C 57.754 103.020,57.934 102.837,58.154 102.767 C 58.374 102.698,58.634 102.429,58.733 102.171 C 58.831 101.913,58.997 101.702,59.101 101.702 C 59.205 101.702,59.580 101.395,59.932 101.020 C 60.285 100.645,60.676 100.229,60.802 100.096 C 60.928 99.963,61.343 99.568,61.726 99.217 C 62.108 98.867,62.421 98.501,62.421 98.404 C 62.421 98.307,62.601 98.170,62.822 98.100 C 63.042 98.030,63.319 97.762,63.436 97.504 C 63.554 97.246,63.761 97.035,63.898 97.035 C 64.034 97.035,64.199 96.864,64.265 96.656 C 64.331 96.447,64.552 96.224,64.754 96.159 C 64.957 96.095,65.178 95.872,65.244 95.663 C 65.310 95.455,65.432 95.284,65.516 95.284 C 65.738 95.284,67.088 93.937,67.088 93.715 C 67.088 93.610,67.307 93.441,67.574 93.340 C 67.910 93.212,68.060 93.008,68.060 92.678 C 68.060 92.401,67.857 92.041,67.574 91.819 C 67.307 91.609,67.083 91.362,67.076 91.270 C 67.070 91.178,66.696 90.799,66.246 90.427 C 65.795 90.055,65.123 89.382,64.750 88.932 C 64.378 88.482,64.017 88.108,63.947 88.101 C 63.783 88.086,62.425 86.728,62.409 86.563 C 62.403 86.493,62.014 86.130,61.545 85.756 C 61.076 85.382,60.638 84.922,60.572 84.735 C 60.505 84.548,60.377 84.395,60.288 84.395 C 60.130 84.395,58.726 83.069,58.726 82.919 C 58.726 82.660,57.198 81.492,56.879 81.508 C 56.665 81.519,56.206 81.830,55.858 82.200 M109.770 86.843 C 105.247 91.369,104.428 92.273,104.532 92.628 C 104.659 93.057,114.536 103.120,115.184 103.479 C 115.678 103.754,126.191 93.333,126.198 92.561 C 126.203 92.048,115.873 81.478,115.367 81.478 C 115.238 81.478,112.719 83.892,109.770 86.843 M116.078 86.923 C 116.418 86.923,121.342 92.059,121.342 92.414 C 121.342 92.836,115.913 98.396,115.501 98.396 C 115.024 98.396,110.120 93.265,109.978 92.617 C 109.792 91.772,114.920 86.536,115.657 86.818 C 115.806 86.876,115.996 86.923,116.078 86.923 M60.246 89.466 C 63.519 92.712,63.520 92.310,60.233 95.612 C 56.881 98.980,57.261 98.979,53.911 95.622 C 50.651 92.356,50.651 92.768,53.911 89.502 C 57.265 86.141,56.895 86.143,60.246 89.466 M72.095 107.109 C 62.717 116.492,57.948 121.394,57.948 121.654 C 57.948 122.019,85.775 150.095,86.315 150.276 C 86.749 150.420,114.912 122.015,114.791 121.554 C 114.679 121.124,112.472 118.814,112.173 118.814 C 112.082 118.814,112.008 118.723,112.008 118.613 C 112.008 118.502,111.704 118.109,111.334 117.738 C 110.963 117.367,110.569 117.064,110.459 117.064 C 110.348 117.064,110.258 116.988,110.258 116.894 C 110.258 116.682,107.735 114.147,107.523 114.147 C 107.437 114.147,107.311 113.972,107.244 113.758 C 107.176 113.544,107.001 113.369,106.855 113.369 C 106.709 113.369,106.532 113.189,106.462 112.969 C 106.392 112.749,106.124 112.489,105.866 112.390 C 105.607 112.292,105.396 112.126,105.396 112.022 C 105.396 111.800,104.046 110.452,103.824 110.452 C 103.740 110.452,103.618 110.282,103.552 110.073 C 103.486 109.865,103.266 109.641,103.063 109.577 C 102.860 109.513,102.640 109.289,102.573 109.081 C 102.507 108.873,102.342 108.702,102.206 108.702 C 102.070 108.702,101.862 108.491,101.745 108.233 C 101.627 107.975,101.350 107.706,101.130 107.636 C 100.910 107.566,100.729 107.430,100.729 107.333 C 100.729 107.236,100.416 106.870,100.034 106.519 C 99.651 106.169,99.236 105.773,99.110 105.640 C 98.985 105.507,98.593 105.092,98.241 104.717 C 97.888 104.342,97.530 104.035,97.445 104.035 C 97.361 104.035,97.195 103.824,97.078 103.566 C 96.960 103.308,96.683 103.039,96.463 102.969 C 96.243 102.899,96.062 102.765,96.062 102.670 C 96.062 102.575,95.755 102.209,95.381 101.857 C 95.006 101.504,94.590 101.113,94.457 100.987 C 94.324 100.861,93.928 100.446,93.578 100.063 C 93.228 99.681,92.870 99.368,92.783 99.368 C 92.696 99.368,92.528 99.157,92.411 98.899 C 92.293 98.641,92.016 98.372,91.796 98.302 C 91.576 98.232,91.395 98.056,91.395 97.910 C 91.395 97.764,91.220 97.589,91.006 97.521 C 90.792 97.453,90.617 97.327,90.617 97.241 C 90.617 97.029,88.083 94.507,87.870 94.507 C 87.777 94.507,87.701 94.410,87.701 94.293 C 87.701 94.070,86.585 92.949,86.367 92.953 C 86.298 92.955,79.876 99.325,72.095 107.109 M109.480 121.692 C 109.480 122.474,86.657 145.139,86.029 144.981 C 85.732 144.907,81.058 140.376,74.148 133.464 L 62.756 122.069 63.108 121.462 C 63.302 121.129,66.377 117.937,69.941 114.370 C 73.506 110.802,76.422 107.805,76.422 107.709 C 76.422 107.614,76.505 107.535,76.606 107.535 C 76.707 107.535,78.750 105.566,81.146 103.160 C 83.541 100.754,85.592 98.785,85.702 98.785 C 85.813 98.785,86.017 98.647,86.157 98.479 C 86.492 98.074,109.480 120.954,109.480 121.692 M85.816 105.132 C 85.285 105.348,69.421 121.420,69.421 121.742 C 69.421 122.074,79.050 131.842,79.377 131.842 C 79.463 131.842,79.533 131.921,79.533 132.018 C 79.533 132.245,80.881 133.593,81.108 133.593 C 81.205 133.593,81.283 133.669,81.283 133.762 C 81.283 133.947,85.528 138.260,85.710 138.260 C 85.772 138.260,85.964 138.387,86.136 138.544 C 86.417 138.798,86.591 138.685,87.792 137.474 C 88.529 136.730,89.205 136.121,89.292 136.121 C 89.379 136.121,89.451 136.042,89.451 135.946 C 89.451 135.718,90.798 134.370,91.026 134.370 C 91.122 134.370,91.201 134.297,91.201 134.207 C 91.201 133.982,92.743 132.426,92.966 132.426 C 93.065 132.426,93.145 132.352,93.145 132.262 C 93.145 132.047,97.434 127.759,97.648 127.759 C 97.738 127.759,97.812 127.685,97.812 127.595 C 97.812 127.504,98.789 126.454,99.982 125.261 C 101.175 124.068,102.225 123.092,102.315 123.092 C 102.405 123.092,102.479 122.989,102.479 122.864 C 102.479 122.739,102.624 122.476,102.801 122.281 C 103.036 122.021,103.074 121.817,102.942 121.521 C 102.660 120.889,86.684 105.005,86.348 105.023 C 86.183 105.031,85.943 105.080,85.816 105.132 M91.994 115.500 C 95.430 118.931,97.516 121.161,97.650 121.545 L 97.862 122.154 92.219 127.776 C 89.115 130.868,86.527 133.398,86.467 133.398 C 85.415 133.398,74.425 122.398,74.659 121.580 C 74.757 121.238,76.807 119.045,80.134 115.720 C 84.883 110.977,85.833 110.121,86.396 110.076 C 86.481 110.069,89.000 112.510,91.994 115.500 M85.970 116.798 C 85.366 117.100,81.531 120.909,81.226 121.511 C 80.997 121.962,84.876 126.302,86.087 126.950 C 86.635 127.244,91.641 122.168,91.344 121.620 C 90.663 120.368,86.429 116.569,85.970 116.798 M294.737 121.856 C 294.664 121.930,294.604 123.944,294.604 126.333 L 294.604 130.676 298.594 130.676 L 302.584 130.676 302.532 126.252 L 302.479 121.828 298.675 121.775 C 296.583 121.746,294.811 121.783,294.737 121.856  M -25 0 Z"
            stroke="none" fill="#58dccd" fill-rule="evenodd" transform="translate(490,0)"></path>
    </g>
</svg>